<?xml version="1.0" encoding="UTF-8"?>
<svg xmlns="http://www.w3.org/2000/svg" xmlns:xlink="http://www.w3.org/1999/xlink" viewBox="0 0 48 48" width="48px" height="48px">
<g id="surface320355110">
<path style=" stroke:none;fill-rule:nonzero;fill:rgb(85.882354%,86.274511%,86.666667%);fill-opacity:1;" d="M 39.375 4 L 17.375 7 C 15.375 7.203125 14 9 14 11 L 14 31.5625 C 13.078125 31.398438 12.078125 31.398438 11 31.625 C 7.203125 32.625 4 35.976562 4 39.375 C 4 42.773438 7.203125 44.8125 11 43.8125 C 14.796875 42.8125 18 39.398438 18 36 L 18 18.8125 L 40 15.875 L 40 29.4375 C 39.078125 29.273438 38.078125 29.34375 37 29.625 C 33.203125 30.625 30 33.976562 30 37.375 C 30 40.773438 33.203125 42.8125 37 41.8125 C 40.796875 40.8125 44 37.398438 44 34 L 44 8 C 44 5.601562 41.773438 3.796875 39.375 4 Z M 39.375 4 "/>
</g>
</svg>
